<svg width="32" height="32" viewBox="0 0 32 32" fill="none" xmlns="http://www.w3.org/2000/svg">
<g clip-path="url(#clip0_48_85)">
<path d="M31.3603 23.3156L20.1494 3.89733C18.3182 0.689497 13.6876 0.689497 11.863 3.89733L0.645471 23.3156C-1.18569 26.5234 1.09338 30.5085 4.78865 30.5085H27.1776C30.8729 30.5085 33.1915 26.4839 31.3603 23.3156ZM15.9996 26.2007C15.0247 26.2007 14.2145 25.3905 14.2145 24.4156C14.2145 23.4407 15.0247 22.6305 15.9996 22.6305C16.9745 22.6305 17.7846 23.4407 17.7451 24.4617C17.7912 25.3905 16.9349 26.2007 15.9996 26.2007ZM17.6266 14.6604C17.5475 16.0436 17.4619 17.4203 17.3828 18.8035C17.3433 19.2514 17.3433 19.6598 17.3433 20.1012C17.3038 20.8323 16.7307 21.3988 15.9996 21.3988C15.2684 21.3988 14.702 20.8718 14.6559 20.1407C14.5373 17.9868 14.4121 15.8724 14.2936 13.7184C14.2541 13.152 14.2145 12.5789 14.1684 12.0124C14.1684 11.0771 14.6954 10.3064 15.5517 10.0627C16.408 9.85849 17.2577 10.2669 17.6266 11.0771C17.7517 11.3603 17.7912 11.6436 17.7912 11.9729C17.7517 12.8753 17.6661 13.7711 17.6266 14.6604Z" fill="#F6B500"/>
</g>
<defs>
<clipPath id="clip0_48_85">
<rect width="32" height="32" fill="white"/>
</clipPath>
</defs>
</svg>
