<svg width="16" height="18" viewBox="0 0 16 18" fill="none" xmlns="http://www.w3.org/2000/svg">
<path d="M13.9999 5.17528L1.99994 5.17528C1.87845 5.17567 1.75936 5.2096 1.65549 5.27341C1.55163 5.33723 1.46692 5.42852 1.41048 5.53745C1.35404 5.64639 1.32802 5.76885 1.33521 5.89165C1.3424 6.01445 1.38253 6.13293 1.45128 6.23436L7.45128 15.0094C7.69994 15.3732 8.29861 15.3732 8.54794 15.0094L14.5479 6.23436C14.6174 6.13315 14.6581 6.0146 14.6657 5.8916C14.6733 5.76859 14.6474 5.64584 14.5909 5.53667C14.5344 5.42751 14.4495 5.3361 14.3453 5.27239C14.2411 5.20867 14.1217 5.17509 13.9999 5.17528Z" fill="#0D84D4"/>
</svg>
