<svg width="16" height="18" viewBox="0 0 16 18" fill="none" xmlns="http://www.w3.org/2000/svg">
<path d="M2.00006 12.8247L14.0001 12.8247C14.1216 12.8243 14.2406 12.7904 14.3445 12.7266C14.4484 12.6628 14.5331 12.5715 14.5895 12.4625C14.646 12.3536 14.672 12.2311 14.6648 12.1083C14.6576 11.9856 14.6175 11.8671 14.5487 11.7656L8.54872 2.99064C8.30006 2.62682 7.70139 2.62682 7.45206 2.99064L1.45206 11.7656C1.38261 11.8669 1.34188 11.9854 1.3343 12.1084C1.32672 12.2314 1.35258 12.3542 1.40907 12.4633C1.46555 12.5725 1.55051 12.6639 1.6547 12.7276C1.75889 12.7913 1.87834 12.8249 2.00006 12.8247Z" fill="#0D84D4"/>
</svg>
