<svg width="50" height="50" viewBox="0 0 50 50" fill="none" xmlns="http://www.w3.org/2000/svg">
<path d="M13.6887 24.1125C13.6887 24.1125 23.0867 20.1143 26.3461 18.7064C27.5956 18.1433 31.8328 16.3412 31.8328 16.3412C31.8328 16.3412 33.7885 15.5529 33.6255 17.4675C33.5711 18.2559 33.1366 21.0152 32.702 23.9998C32.0501 28.2234 31.3439 32.841 31.3439 32.841C31.3439 32.841 31.2352 34.1363 30.3118 34.3615C29.3883 34.5868 27.8672 33.5732 27.5956 33.3479C27.3782 33.179 23.5213 30.6448 22.1089 29.4059C21.7286 29.0681 21.294 28.3924 22.1632 27.6039C24.1189 25.7456 26.4547 23.4367 27.8672 21.9726C28.5191 21.2968 29.1709 19.72 26.4547 21.6347C22.5978 24.3941 18.7952 26.9845 18.7952 26.9845C18.7952 26.9845 17.926 27.5476 16.2963 27.0408C14.6665 26.534 12.7652 25.8582 12.7652 25.8582C12.7652 25.8582 11.4615 25.0135 13.6887 24.1125Z" fill="#0D84D4"/>
</svg>
