<svg width="36" height="36" viewBox="0 0 36 36" fill="none" xmlns="http://www.w3.org/2000/svg">
<path d="M9.85595 17.361C9.85595 17.361 16.6225 14.4823 18.9693 13.4686C19.8689 13.0632 22.9197 11.7657 22.9197 11.7657C22.9197 11.7657 24.3278 11.1981 24.2104 12.5766C24.1713 13.1443 23.8584 15.131 23.5455 17.2799C23.0761 20.3208 22.5677 23.6456 22.5677 23.6456C22.5677 23.6456 22.4894 24.5781 21.8245 24.7403C21.1596 24.9025 20.0644 24.1727 19.8689 24.0105C19.7124 23.8889 16.9354 22.0643 15.9185 21.1723C15.6447 20.929 15.3318 20.4425 15.9575 19.8748C17.3656 18.5368 19.0475 16.8745 20.0644 15.8203C20.5338 15.3337 21.0031 14.1984 19.0475 15.577C16.2705 17.5637 13.5326 19.4288 13.5326 19.4288C13.5326 19.4288 12.9067 19.8343 11.7334 19.4693C10.5599 19.1045 9.19099 18.6179 9.19099 18.6179C9.19099 18.6179 8.25233 18.0097 9.85595 17.361Z" fill="#0D84D4"/>
</svg>
