<svg width="36" height="36" viewBox="0 0 36 36" fill="none" xmlns="http://www.w3.org/2000/svg">
<path d="M9 26.2801L10.2915 21.4825C9.24993 19.6135 8.91903 17.4326 9.35947 15.34C9.79991 13.2473 10.9822 11.3833 12.6893 10.0899C14.3964 8.7965 16.5138 8.16055 18.6531 8.29872C20.7923 8.43689 22.8099 9.33992 24.3355 10.8421C25.8611 12.3443 26.7925 14.3448 26.9587 16.4767C27.1248 18.6085 26.5147 20.7286 25.2402 22.448C23.9658 24.1673 22.1124 25.3706 20.0203 25.837C17.9282 26.3033 15.7376 26.0015 13.8506 24.9869L9 26.2801ZM14.0845 23.1916L14.3845 23.3691C15.7513 24.1772 17.3477 24.5116 18.9249 24.3202C20.5022 24.1288 21.9717 23.4223 23.1044 22.3109C24.2371 21.1995 24.9694 19.7456 25.1871 18.1757C25.4049 16.6059 25.096 15.0082 24.3084 13.6318C23.5208 12.2553 22.2989 11.1774 20.833 10.566C19.3671 9.95461 17.7397 9.84404 16.2042 10.2515C14.6688 10.659 13.3116 11.5617 12.3442 12.8189C11.3768 14.0761 10.8535 15.6172 10.8558 17.2021C10.8546 18.5161 11.2189 19.8048 11.9083 20.9246L12.0965 21.2339L11.3745 23.9117L14.0845 23.1916Z" fill="#0D84D4"/>
<path fill-rule="evenodd" clip-rule="evenodd" d="M21.3654 18.434C21.1895 18.2925 20.9836 18.1929 20.7633 18.1428C20.543 18.0927 20.3142 18.0934 20.0942 18.1449C19.7637 18.2818 19.5502 18.7991 19.3366 19.0578C19.2916 19.1198 19.2254 19.1633 19.1506 19.1801C19.0757 19.1969 18.9972 19.1859 18.9299 19.1491C17.7199 18.6764 16.7058 17.8096 16.0521 16.6894C15.9963 16.6195 15.9699 16.5307 15.9785 16.4418C15.987 16.3529 16.0298 16.2707 16.0978 16.2127C16.336 15.9775 16.5109 15.6862 16.6063 15.3657C16.6275 15.0122 16.5463 14.6601 16.3724 14.3514C16.238 13.9186 15.9821 13.5332 15.6351 13.2407C15.4562 13.1604 15.2577 13.1335 15.0638 13.1632C14.8698 13.1929 14.6886 13.2779 14.542 13.4081C14.2875 13.6271 14.0855 13.9003 13.9508 14.2075C13.8162 14.5147 13.7524 14.8481 13.764 15.1831C13.7648 15.3713 13.7887 15.5586 13.8352 15.741C13.9533 16.1791 14.1349 16.5977 14.3742 16.9835C14.5469 17.2791 14.7353 17.5652 14.9386 17.8406C15.5993 18.7454 16.4299 19.5136 17.3842 20.1025C17.8631 20.4018 18.3749 20.6452 18.9095 20.8278C19.4649 21.0789 20.0781 21.1753 20.684 21.1067C21.0292 21.0546 21.3563 20.9186 21.6365 20.7108C21.9167 20.503 22.1413 20.2297 22.2907 19.9149C22.3785 19.7247 22.4051 19.5121 22.367 19.3063C22.2755 18.8854 21.7111 18.6369 21.3654 18.434Z" fill="#0D84D4"/>
</svg>
