<svg width="18" height="19" viewBox="0 0 18 19" fill="none" xmlns="http://www.w3.org/2000/svg">
<path d="M0 18.2803L1.29146 13.4826C0.24993 11.6136 -0.0809746 9.43274 0.359468 7.34009C0.79991 5.24743 1.98215 3.38339 3.68926 2.09001C5.39636 0.796634 7.51382 0.160682 9.65306 0.298854C11.7923 0.437025 13.8099 1.34005 15.3355 2.84223C16.8611 4.3444 17.7925 6.34496 17.9587 8.4768C18.1248 10.6086 17.5147 12.7288 16.2402 14.4481C14.9658 16.1675 13.1124 17.3707 11.0203 17.8371C8.92819 18.3035 6.73763 18.0016 4.8506 16.987L0 18.2803ZM5.08448 15.1917L5.38447 15.3692C6.75128 16.1773 8.3477 16.5117 9.92494 16.3203C11.5022 16.1289 12.9717 15.4224 14.1044 14.3111C15.2371 13.1997 15.9694 11.7457 16.1871 10.1759C16.4049 8.60599 16.096 7.00835 15.3084 5.63192C14.5208 4.25548 13.2989 3.17757 11.833 2.56615C10.3671 1.95474 8.73968 1.84417 7.20423 2.25168C5.66878 2.65918 4.3116 3.56187 3.34419 4.81907C2.37678 6.07628 1.85348 7.61737 1.85584 9.2022C1.85455 10.5163 2.2189 11.8049 2.90832 12.9247L3.09645 13.2341L2.37445 15.9119L5.08448 15.1917Z" fill="#0D84D4"/>
<path fill-rule="evenodd" clip-rule="evenodd" d="M12.3654 10.4339C12.1895 10.2924 11.9836 10.1928 11.7633 10.1427C11.543 10.0926 11.3142 10.0933 11.0942 10.1448C10.7637 10.2817 10.5502 10.799 10.3366 11.0577C10.2916 11.1197 10.2254 11.1632 10.1506 11.18C10.0757 11.1968 9.9972 11.1858 9.92989 11.149C8.71995 10.6763 7.70576 9.80946 7.05207 8.68928C6.99631 8.61937 6.96992 8.53062 6.97846 8.4417C6.98699 8.35278 7.02979 8.27063 7.09783 8.21255C7.336 7.97736 7.51088 7.68607 7.60628 7.3656C7.62746 7.01212 7.54627 6.66002 7.37239 6.35129C7.23797 5.91846 6.98214 5.53306 6.63514 5.24062C6.45617 5.16033 6.25772 5.13341 6.06375 5.16311C5.86978 5.19281 5.68857 5.27785 5.54198 5.40798C5.28748 5.627 5.08548 5.90016 4.95085 6.20736C4.81622 6.51455 4.75238 6.84796 4.76405 7.18303C4.76483 7.37119 4.78874 7.55854 4.83523 7.7409C4.9533 8.17903 5.13486 8.59762 5.37419 8.98343C5.54685 9.27896 5.73525 9.56506 5.93857 9.84052C6.59932 10.7453 7.4299 11.5135 8.3842 12.1024C8.86308 12.4017 9.3749 12.6451 9.90955 12.8277C10.4649 13.0788 11.0781 13.1752 11.684 13.1066C12.0292 13.0545 12.3563 12.9185 12.6365 12.7107C12.9167 12.5029 13.1413 12.2296 13.2907 11.9148C13.3785 11.7246 13.4051 11.512 13.367 11.3062C13.2755 10.8853 12.7111 10.6368 12.3654 10.4339Z" fill="#0D84D4"/>
</svg>
