<svg width="17" height="14" viewBox="0 0 17 14" fill="none" xmlns="http://www.w3.org/2000/svg">
<path d="M1.85595 6.36147C1.85595 6.36147 8.6225 3.48275 10.9693 2.46908C11.8689 2.06365 14.9197 0.766151 14.9197 0.766151C14.9197 0.766151 16.3278 0.198545 16.2104 1.57707C16.1713 2.14474 15.8584 4.13144 15.5455 6.28038C15.0761 9.32133 14.5677 12.646 14.5677 12.646C14.5677 12.646 14.4894 13.5786 13.8245 13.7408C13.1596 13.903 12.0644 13.1732 11.8689 13.011C11.7124 12.8894 8.93539 11.0648 7.91846 10.1728C7.64466 9.9295 7.33177 9.44298 7.95754 8.87532C9.36563 7.53731 11.0475 5.87495 12.0644 4.82076C12.5338 4.33419 13.0031 3.19892 11.0475 4.57745C8.27048 6.56421 5.53257 8.42932 5.53257 8.42932C5.53257 8.42932 4.90675 8.83475 3.73337 8.46983C2.55994 8.10497 1.19099 7.61839 1.19099 7.61839C1.19099 7.61839 0.252328 7.01022 1.85595 6.36147Z" fill="#0D84D4"/>
</svg>
