<svg width="12" height="18" viewBox="0 0 12 18" fill="none" xmlns="http://www.w3.org/2000/svg">
<path fill-rule="evenodd" clip-rule="evenodd" d="M6.417 17.25H5.592L4.836 16.3373C3.8175 15.1073 2.637 13.533 1.70325 11.9002C0.79725 10.3162 0 8.46975 0 6.75C0 3.29625 2.54625 0.75 6 0.75C9.45375 0.75 12 3.29625 12 6.75C12 8.47875 11.178 10.326 10.2653 11.9002C9.32325 13.5247 8.14275 15.0938 7.1625 16.3177L6.417 17.25ZM9 6.75C9 7.54565 8.68393 8.30871 8.12132 8.87132C7.55871 9.43393 6.79565 9.75 6 9.75C5.20435 9.75 4.44129 9.43393 3.87868 8.87132C3.31607 8.30871 3 7.54565 3 6.75C3 5.95435 3.31607 5.19129 3.87868 4.62868C4.44129 4.06607 5.20435 3.75 6 3.75C6.79565 3.75 7.55871 4.06607 8.12132 4.62868C8.68393 5.19129 9 5.95435 9 6.75Z" fill="#0D84D4"/>
</svg>
