<svg width="11" height="14" viewBox="0 0 11 14" fill="none" xmlns="http://www.w3.org/2000/svg">
<path d="M0.175039 1.00006L0.175039 13.0001C0.175424 13.1216 0.209352 13.2406 0.273169 13.3445C0.336985 13.4484 0.428275 13.5331 0.537211 13.5895C0.646148 13.646 0.768607 13.672 0.891405 13.6648C1.0142 13.6576 1.13269 13.6175 1.23411 13.5487L10.0091 7.54872C10.3729 7.30006 10.3729 6.70139 10.0091 6.45206L1.23411 0.452057C1.1329 0.382606 1.01435 0.341879 0.891353 0.3343C0.76835 0.326721 0.645597 0.352579 0.536429 0.409066C0.427261 0.465553 0.335855 0.550507 0.272141 0.654699C0.208428 0.758891 0.174845 0.878337 0.175039 1.00006Z" fill="#0D84D4"/>
</svg>
