<svg width="11" height="14" viewBox="0 0 11 14" fill="none" xmlns="http://www.w3.org/2000/svg">
<path d="M10.825 1.00006L10.825 13.0001C10.8246 13.1216 10.7906 13.2406 10.7268 13.3445C10.663 13.4484 10.5717 13.5331 10.4628 13.5895C10.3539 13.646 10.2314 13.672 10.1086 13.6648C9.9858 13.6576 9.86731 13.6175 9.76589 13.5487L0.990887 7.54872C0.627062 7.30006 0.627062 6.70139 0.990887 6.45206L9.76589 0.452057C9.8671 0.382606 9.98565 0.341879 10.1086 0.3343C10.2317 0.326721 10.3544 0.352579 10.4636 0.409066C10.5727 0.465553 10.6641 0.550507 10.7279 0.654699C10.7916 0.758891 10.8252 0.878337 10.825 1.00006Z" fill="#0D84D4"/>
</svg>
