<svg width="22" height="19" viewBox="0 0 22 19" fill="none" xmlns="http://www.w3.org/2000/svg">
<path d="M1.68947 8.11247C1.68947 8.11247 11.0875 4.11425 14.3468 2.70638C15.5963 2.14328 19.8335 0.341198 19.8335 0.341198C19.8335 0.341198 21.7892 -0.447144 21.6262 1.46748C21.5719 2.2559 21.1373 5.01521 20.7027 7.99985C20.0508 12.2234 19.3446 16.841 19.3446 16.841C19.3446 16.841 19.236 18.1363 18.3125 18.3615C17.389 18.5868 15.8679 17.5732 15.5963 17.3479C15.379 17.179 11.522 14.6448 10.1096 13.4059C9.72934 13.0681 9.29478 12.3924 10.1639 11.6039C12.1196 9.74558 14.4555 7.43675 15.8679 5.97261C16.5198 5.29681 17.1717 3.72004 14.4555 5.63467C10.5985 8.39406 6.79589 10.9845 6.79589 10.9845C6.79589 10.9845 5.92669 11.5476 4.297 11.0408C2.66724 10.534 0.765909 9.8582 0.765909 9.8582C0.765909 9.8582 -0.537782 9.01351 1.68947 8.11247Z" fill="#0D84D4"/>
</svg>
