<svg width="26" height="26" viewBox="0 0 26 26" fill="none" xmlns="http://www.w3.org/2000/svg">
<path d="M0.5 25.5002L2.29369 18.8367C0.847124 16.241 0.387535 13.2119 0.999261 10.3055C1.61099 7.39901 3.25299 4.81006 5.62397 3.01371C7.99495 1.21735 10.9359 0.334084 13.907 0.525989C16.8782 0.717894 19.6804 1.9721 21.7993 4.05845C23.9182 6.1448 25.2117 8.92336 25.4426 11.8842C25.6734 14.8451 24.826 17.7897 23.0559 20.1777C21.2858 22.5657 18.7117 24.2369 15.806 24.8846C12.9003 25.5324 9.85781 25.1132 7.23694 23.704L0.5 25.5002ZM7.56178 21.2105L7.97843 21.457C9.87678 22.5794 12.094 23.0438 14.2846 22.778C16.4753 22.5121 18.5162 21.531 20.0894 19.9874C21.6626 18.4438 22.6797 16.4244 22.9821 14.2441C23.2846 12.0637 22.8555 9.84474 21.7616 7.93302C20.6678 6.02131 18.9707 4.5242 16.9347 3.67502C14.8988 2.82583 12.6384 2.67226 10.5059 3.23824C8.3733 3.80422 6.48833 5.05796 5.14471 6.80407C3.80108 8.55019 3.07427 10.6906 3.07755 12.8917C3.07577 14.7169 3.58181 16.5067 4.53934 18.0619L4.80063 18.4916L3.79785 22.2107L7.56178 21.2105Z" fill="#25C900"/>
<path fill-rule="evenodd" clip-rule="evenodd" d="M17.6745 14.6028C17.4302 14.4063 17.1442 14.268 16.8383 14.1984C16.5324 14.1288 16.2145 14.1298 15.909 14.2013C15.45 14.3915 15.1534 15.1099 14.8568 15.4692C14.7943 15.5553 14.7024 15.6157 14.5984 15.639C14.4944 15.6624 14.3854 15.647 14.2919 15.5959C12.6114 14.9394 11.2028 13.7355 10.2949 12.1797C10.2175 12.0826 10.1808 11.9593 10.1927 11.8358C10.2045 11.7123 10.264 11.5982 10.3585 11.5176C10.6893 11.1909 10.9322 10.7863 11.0647 10.3413C11.0941 9.85031 10.9813 9.36128 10.7398 8.93249C10.5531 8.33134 10.1978 7.79606 9.71585 7.3899C9.46728 7.27838 9.19166 7.24099 8.92226 7.28224C8.65286 7.32348 8.40117 7.4416 8.19757 7.62234C7.8441 7.92652 7.56355 8.30592 7.37656 8.73258C7.18957 9.15924 7.10091 9.62231 7.11712 10.0877C7.11821 10.349 7.15141 10.6092 7.21598 10.8625C7.37996 11.471 7.63214 12.0524 7.96453 12.5882C8.20434 12.9987 8.46601 13.3961 8.74839 13.7786C9.6661 15.0352 10.8197 16.1022 12.1451 16.9202C12.8102 17.3359 13.5211 17.6739 14.2636 17.9274C15.035 18.2762 15.8867 18.4101 16.7282 18.3149C17.2077 18.2425 17.662 18.0536 18.0511 17.765C18.4402 17.4764 18.7522 17.0967 18.9597 16.6596C19.0816 16.3955 19.1186 16.1002 19.0657 15.8143C18.9385 15.2297 18.1547 14.8845 17.6745 14.6028Z" fill="#25C900"/>
</svg>
